<svg width="125" height="34" viewBox="0 0 125 34" fill="none" xmlns="http://www.w3.org/2000/svg">
<g clip-path="url(#clip0)" filter="url(#filter0_d)">
<path d="M20.388 14.4235C20.3481 14.4708 20.3099 14.5201 20.2675 14.5646L20.2667 14.5739L16.2844 19.0286L16.2777 19.0267C16.0135 19.3243 15.699 19.5604 15.3528 19.7214C15.0065 19.8824 14.6351 19.9651 14.26 19.9647H10.34C10.2623 19.9645 10.1853 19.9816 10.1135 20.0147C10.0417 20.0479 9.97641 20.0966 9.92143 20.158C9.86644 20.2194 9.82282 20.2924 9.79306 20.3727C9.7633 20.4529 9.74798 20.5389 9.74798 20.6258V24.541L9.73552 24.5419C9.71429 24.6861 9.65795 24.8208 9.57269 24.9315C9.48744 25.0422 9.37656 25.1245 9.25224 25.1692C9.12792 25.2141 8.99497 25.2197 8.86797 25.1855C8.74098 25.1514 8.62486 25.0787 8.53236 24.9756L8.52987 24.9774L4.9179 20.9398L4.92122 20.9333C4.64466 20.6367 4.42462 20.2805 4.27435 19.8864C4.12409 19.4921 4.04671 19.068 4.04688 18.6395V8.5369C4.04688 7.68067 4.34995 6.90525 4.84151 6.33228L4.83985 6.32671L8.93508 1.74668L8.93674 1.74761C9.46821 1.16432 10.1833 0.837837 10.9279 0.838471H14.26C14.6852 0.838471 15.087 0.945265 15.4483 1.13192V1.12449C15.7572 1.28515 16.0378 1.50152 16.2736 1.76711L16.2786 1.76432L21.1394 7.20056L21.1402 13.5775H26.8281V23.4861C26.8297 23.4917 26.8297 23.4981 26.8297 23.5046V23.7284C26.8047 24.1306 26.6442 24.5072 26.3807 24.7822C26.1172 25.0573 25.7703 25.2103 25.4098 25.2105H22.5592C22.3623 25.2104 22.1677 25.1646 21.9873 25.0761C21.8071 24.9875 21.6451 24.8581 21.5118 24.6961C21.3785 24.5341 21.2766 24.3429 21.2127 24.1346C21.1487 23.9264 21.124 23.7055 21.1402 23.4861V13.5775L20.388 14.4235ZM14.8562 13.5849C14.9339 13.5851 15.0109 13.568 15.0827 13.5349C15.1546 13.5017 15.2198 13.453 15.2748 13.3916C15.3298 13.3302 15.3734 13.2573 15.4032 13.177C15.433 13.0967 15.4483 13.0107 15.4483 12.9237V7.87754C15.4483 7.79063 15.433 7.70458 15.4032 7.6243C15.3734 7.54402 15.3298 7.47109 15.2748 7.40968C15.2198 7.34827 15.1546 7.29959 15.0827 7.26641C15.0109 7.23324 14.9339 7.21623 14.8562 7.21635L10.3392 7.21542C10.1823 7.21542 10.0318 7.28505 9.92084 7.40902C9.80984 7.53299 9.74737 7.70116 9.74715 7.87661V12.9219C9.74715 13.2878 10.012 13.5831 10.3392 13.5831H14.8545L14.8562 13.5849Z" fill="#92929A"/>
<path d="M21.1436 13.5842H26.8314L21.1436 7.20905V13.5842Z" fill="#92929A"/>
<path d="M34.894 6.15017H40.1575C42.3081 6.15017 44.2162 6.15017 45.3654 7.99537C45.8661 8.82464 46.1069 10.0058 46.1069 11.0005C46.1069 11.8083 45.9583 12.5968 45.6619 13.2802C44.5318 15.8925 42.1221 15.9547 40.3427 15.9955H38.1747V20.7836H34.894V6.15017ZM38.1763 8.84509V13.2802H40.1426C41.3673 13.2802 42.8511 13.2394 42.8511 10.98C42.8511 8.84418 41.1996 8.84418 40.2538 8.84418L38.1763 8.84509ZM50.0377 11.0812C50.6679 10.4795 51.3538 10.0031 52.836 9.83683V12.6562L51.891 12.8215C50.5201 13.0908 50.1116 13.3193 50.1116 14.6871V20.7808H47.2578V9.94085H50.0377V11.0812ZM63.9741 15.3483C63.9741 18.085 62.5658 21.0901 58.7845 21.0901C56.0602 21.0901 53.5766 19.3489 53.5766 15.3483C53.5766 12.0321 55.4482 9.39948 59.1557 9.62789C63.1031 9.87676 63.9741 13.3796 63.9741 15.3483ZM56.9312 13.2152C56.5791 13.8374 56.4496 14.585 56.4496 15.3325C56.4496 17.0552 57.1903 18.5707 58.7845 18.5707C60.3231 18.5707 61.0829 17.1796 61.0829 15.4783C61.0829 14.2739 60.823 13.3397 60.2858 12.7583C59.6929 12.1362 59.0253 12.1148 58.6176 12.1566C57.8022 12.2188 57.3206 12.5299 56.932 13.2152H56.9312ZM66.2916 8.88039C66.2916 8.34176 66.3281 7.61556 66.6985 7.03516C67.0514 6.49655 67.8477 5.93658 69.1828 5.93658C69.7574 5.93658 70.3321 6.04059 70.8875 6.12231V8.50706H70.2017C69.1272 8.50706 69.0716 8.75592 69.0899 10.2065H70.9988V12.1547H69.1081V20.778H66.2725V12.1547H64.753V10.2065H66.2916V8.88039Z" fill="#92929A"/>
<path d="M72.4254 8.59795H75.2413V6.1315H72.4254V8.59795ZM72.4254 20.7863H75.2413V9.94545H72.4254V20.7863Z" fill="#92929A"/>
<path d="M78.1514 6.82803H80.9869V10.2064H82.8592V12.1547H80.9686V17.0263C80.9503 17.6894 80.9503 18.2493 81.7104 18.2493L82.7292 18.2076V20.6945C82.1182 20.7985 81.747 20.8607 81.2288 20.8607C80.2452 20.8607 79.1709 20.7985 78.5592 19.8029C78.1704 19.1613 78.1521 18.3942 78.1521 17.3579V12.1343H76.7431V10.186H78.1514V6.82803Z" fill="#92929A"/>
<path d="M93.5666 6.15039C93.9568 7.72535 94.3449 9.30122 94.7703 10.8771C95.4944 13.6955 95.6238 14.1515 96.0316 16.9913C96.4204 14.0893 96.5132 13.5925 97.1059 10.6069C97.3843 9.11463 97.6804 7.62228 97.9588 6.15039H101.202L97.8849 20.7839H94.5115C94.1044 19.168 93.7143 17.5503 93.2882 15.9549C92.5837 13.26 92.5465 13.156 92.157 11.1046C91.8244 12.908 91.7871 13.053 91.0454 15.8509L89.7848 20.7839H86.4121L83.0949 6.15039H86.3572C87.7655 13.0938 87.9145 13.8608 88.3026 17.0321C88.7843 14.1311 88.915 13.5711 89.6005 10.6691L90.6748 6.15039H93.5666Z" fill="#92929A"/>
<path d="M110.784 18.0296C110.45 18.5895 110.116 19.1281 109.616 19.6463C108.781 20.5174 107.521 21.1804 105.965 21.1804C103.092 21.1804 101.072 19.1281 101.072 15.5835C101.072 12.9722 102.221 9.61426 106.039 9.61426C106.614 9.61426 108.281 9.67645 109.523 11.1688C110.784 12.6824 110.857 14.796 110.895 16.019H103.982C103.963 17.3655 104.649 18.714 106.188 18.714C107.744 18.714 108.281 17.5736 108.634 16.8065L110.784 18.0296ZM107.947 14.0197C107.892 13.5655 107.818 12.9675 107.41 12.493C107.057 12.1002 106.522 11.894 106.02 11.894C105.335 11.894 104.853 12.2655 104.575 12.5961C104.185 13.0706 104.093 13.5655 104 14.0197H107.947Z" fill="#92929A"/>
<path d="M112.547 20.7839H115.401V6.15039H112.547V20.7839Z" fill="#92929A"/>
<path d="M117.952 20.7839H120.806V6.15039H117.952V20.7839Z" fill="#92929A"/>
</g>
<defs>
<filter id="filter0_d" x="0.046875" y="0.5" width="125.188" height="33" filterUnits="userSpaceOnUse" color-interpolation-filters="sRGB">
<feFlood flood-opacity="0" result="BackgroundImageFix"/>
<feColorMatrix in="SourceAlpha" type="matrix" values="0 0 0 0 0 0 0 0 0 0 0 0 0 0 0 0 0 0 127 0"/>
<feOffset dy="4"/>
<feGaussianBlur stdDeviation="2"/>
<feColorMatrix type="matrix" values="0 0 0 0 0 0 0 0 0 0 0 0 0 0 0 0 0 0 0.25 0"/>
<feBlend mode="normal" in2="BackgroundImageFix" result="effect1_dropShadow"/>
<feBlend mode="normal" in="SourceGraphic" in2="effect1_dropShadow" result="shape"/>
</filter>
<clipPath id="clip0">
<rect width="117.188" height="25" fill="white" transform="translate(4.04688 0.5)"/>
</clipPath>
</defs>
</svg>
