<svg width="101" height="34" viewBox="0 0 101 34" fill="none" xmlns="http://www.w3.org/2000/svg">
<g clip-path="url(#clip0)" filter="url(#filter0_dd)">
<path d="M26.7435 6.75138C26.7433 6.75094 26.7429 6.75013 26.7425 6.74929C26.7414 6.74785 26.7402 6.74599 26.7392 6.74455C26.7135 6.70169 26.6862 6.66026 26.6569 6.61987C26.6493 6.60936 26.6412 6.59946 26.6331 6.58895C26.61 6.55866 26.5862 6.52919 26.561 6.50054C26.5468 6.48426 26.5316 6.46839 26.517 6.45273C26.4965 6.43171 26.4759 6.41089 26.4543 6.39049C26.4345 6.37194 26.414 6.35359 26.3936 6.33628C26.3746 6.32041 26.3558 6.30496 26.3363 6.28971C26.3128 6.27116 26.2884 6.25364 26.2638 6.23633C26.2451 6.22355 26.2268 6.21098 26.2076 6.19861C26.1813 6.18213 26.1548 6.16646 26.1278 6.15142C26.1085 6.14049 26.0891 6.12998 26.0693 6.11989C26.0412 6.10566 26.0127 6.09206 25.9837 6.0797C25.9641 6.07104 25.9445 6.06239 25.9242 6.05435C25.8932 6.04219 25.8616 6.03127 25.8299 6.02076C25.8117 6.01499 25.7938 6.00901 25.7754 6.00386C25.7386 5.99314 25.7012 5.98366 25.6636 5.97562C25.6504 5.97294 25.6373 5.96964 25.6241 5.96717C25.5776 5.9581 25.5303 5.9513 25.4834 5.94615C25.4784 5.94574 25.474 5.94491 25.4693 5.9445C25.1334 5.91091 24.7844 5.97479 24.4695 6.15266L15.6933 11.1168L9.41689 7.56644L15.6985 4.013L19.8865 6.38039C20.6824 6.82988 21.7002 6.56319 22.1599 5.78354C22.6195 5.00369 22.3467 4.0062 21.5507 3.55609L16.531 0.718407C16.0161 0.427198 15.3816 0.427198 14.8668 0.718407L5.29621 6.13184C5.03393 6.27054 4.80534 6.47808 4.64536 6.74929C4.18549 7.52938 4.45811 8.52644 5.25405 8.97631L14.8616 14.4114C14.863 14.4122 14.8643 14.4124 14.8655 14.4132C14.9159 14.4415 14.9682 14.4656 15.0211 14.4883C15.0358 14.4947 15.0499 14.5029 15.0645 14.5087C15.0964 14.5214 15.1295 14.5303 15.1619 14.5408C15.3358 14.5983 15.5143 14.6301 15.692 14.6301C15.6925 14.6301 15.6931 14.6301 15.6937 14.6301C15.6939 14.6301 15.6945 14.6301 15.6952 14.6301C15.8769 14.6301 16.0595 14.5973 16.2366 14.5371C16.265 14.5274 16.2941 14.5202 16.322 14.5089C16.3388 14.5023 16.3549 14.4928 16.3716 14.4856C16.4225 14.4636 16.4729 14.4404 16.5213 14.4132C16.5227 14.4124 16.5242 14.4122 16.5256 14.4114L23.6399 10.3876V17.4943L15.6958 21.9874L7.75267 17.4943V13.0009C7.75267 12.1005 7.00736 11.3707 6.08864 11.3707C5.16952 11.3707 4.42442 12.1005 4.42442 13.0009V18.4356C4.42442 19.018 4.74126 19.5559 5.25632 19.8471L14.8639 25.2819C15.121 25.4273 15.4085 25.5 15.6958 25.5C15.9831 25.5 16.2706 25.4273 16.5279 25.2819L26.1358 19.8471C26.6509 19.5559 26.9678 19.018 26.9678 18.4356V7.56644C26.9678 7.26925 26.8855 6.99144 26.7435 6.75138Z" fill="#92929A"/>
<path fill-rule="evenodd" clip-rule="evenodd" d="M35.5983 15.8739C36.1536 16.2338 36.7175 16.5007 37.2901 16.6748C37.8628 16.849 38.4267 16.936 38.982 16.936C39.5373 16.936 39.9855 16.8083 40.3268 16.553C40.6681 16.2976 40.8387 15.9668 40.8387 15.5605C40.8387 15.2239 40.7028 14.9598 40.4309 14.7683C40.159 14.5768 39.8178 14.4056 39.4071 14.2547C38.9964 14.1038 38.554 13.95 38.0796 13.7933C37.6054 13.6367 37.1629 13.4277 36.7523 13.1665C36.3416 12.9053 36.0003 12.56 35.7285 12.1306C35.4566 11.7011 35.3207 11.1382 35.3207 10.4417C35.3207 9.90778 35.4306 9.42028 35.6504 8.97922C35.8702 8.53816 36.1767 8.15797 36.57 7.83878C36.9634 7.51959 37.4348 7.27291 37.9842 7.09885C38.5337 6.92472 39.1381 6.83766 39.7975 6.83766C40.3528 6.83766 40.9052 6.88991 41.4546 6.99435C42.0042 7.09885 42.5565 7.26135 43.1118 7.48185V10.0238C42.5912 9.72209 42.0707 9.49866 41.5501 9.35353C41.0295 9.20847 40.5148 9.13591 40.0057 9.13591C39.4736 9.13591 39.0427 9.25197 38.713 9.48409C38.3834 9.71628 38.2185 10.0238 38.2185 10.4069C38.2185 10.7319 38.3544 10.9873 38.6263 11.173C38.8981 11.3587 39.2365 11.5241 39.6414 11.6692C40.0462 11.8143 40.4887 11.9652 40.9688 12.1219C41.4488 12.2786 41.8913 12.4904 42.2962 12.7574C42.7011 13.0243 43.0395 13.3755 43.3113 13.8107C43.5832 14.246 43.7191 14.8177 43.7191 15.5257C43.7191 16.0713 43.6063 16.5733 43.3807 17.0318C43.1552 17.4903 42.8428 17.882 42.4437 18.207C42.0446 18.532 41.5674 18.7845 41.0122 18.9644C40.4569 19.1443 39.8496 19.2342 39.1902 19.2342C37.9756 19.2342 36.7782 18.9731 35.5983 18.4508V15.8739ZM44.5624 6.50686H47.3908V10.9292C48.1427 10.3837 48.9352 10.1109 49.768 10.1109C50.2192 10.1109 50.6356 10.1893 51.0174 10.346C51.3991 10.5027 51.7288 10.7232 52.0064 11.0076C52.2841 11.292 52.501 11.6315 52.6572 12.0261C52.8133 12.4208 52.8914 12.8502 52.8914 13.3145V19.0253H50.063V13.8368C50.063 13.477 49.9502 13.181 49.7247 12.9489C49.4991 12.7168 49.2128 12.6007 48.8657 12.6007C48.3452 12.6007 47.8535 12.8328 47.3908 13.2971V19.0253H44.5624V6.50686ZM54.0471 10.3198H56.8754V19.0253H54.0471V10.3198ZM53.9082 8.00422C53.9082 7.53991 54.0529 7.1656 54.3421 6.88122C54.6313 6.59681 55.0072 6.45462 55.4699 6.45462C55.9095 6.45462 56.2768 6.59681 56.5718 6.88122C56.8668 7.1656 57.0143 7.53991 57.0143 8.00422C57.0143 8.44528 56.8668 8.81091 56.5718 9.10109C56.2768 9.39128 55.9095 9.53635 55.4699 9.53635C55.0072 9.53635 54.6313 9.39128 54.3421 9.10109C54.0529 8.81091 53.9082 8.44528 53.9082 8.00422ZM64.0176 14.6726C64.0176 14.0342 63.8585 13.5205 63.5404 13.1317C63.2223 12.7428 62.8087 12.5485 62.2997 12.5485C61.7907 12.5485 61.3338 12.7516 60.9289 13.1578V16.1873C61.3338 16.5936 61.7907 16.7967 62.2997 16.7967C62.8087 16.7967 63.2223 16.5994 63.5404 16.2047C63.8585 15.8101 64.0176 15.2994 64.0176 14.6726ZM58.1005 10.3198H60.9289V10.79C61.5883 10.3373 62.265 10.1109 62.9591 10.1109C63.5375 10.1109 64.0696 10.2241 64.5555 10.4504C65.0414 10.6768 65.4578 10.9902 65.8048 11.3906C66.1519 11.7911 66.4208 12.2698 66.6117 12.827C66.8029 13.3842 66.8982 13.9993 66.8982 14.6726C66.8982 15.3458 66.8029 15.961 66.6117 16.5182C66.4208 17.0753 66.1519 17.5541 65.8048 17.9545C65.4578 18.355 65.0414 18.6684 64.5555 18.8947C64.0696 19.1211 63.5375 19.2342 62.9591 19.2342C62.265 19.2342 61.5883 19.0079 60.9289 18.5552V22.8383H58.1005V10.3198ZM70.6742 16.7967H72.5304C72.9701 16.7967 73.3314 16.6662 73.6148 16.405C73.8982 16.1438 74.0402 15.8101 74.0402 15.4038C74.0402 14.9976 73.8982 14.6639 73.6148 14.4027C73.3314 14.1415 72.9701 14.011 72.5304 14.011H70.6742V16.7967ZM70.6742 11.852H72.2874C72.6923 11.852 73.028 11.7302 73.294 11.4864C73.56 11.2427 73.6933 10.935 73.6933 10.5636C73.6933 10.1805 73.56 9.8701 73.294 9.6321C73.028 9.39416 72.6923 9.27522 72.2874 9.27522H70.6742V11.852ZM67.9148 7.0466H72.8256C73.3576 7.0466 73.8434 7.12785 74.2832 7.29035C74.7229 7.45285 75.1041 7.67922 75.428 7.96935C75.7519 8.25953 76.0036 8.60197 76.183 8.99659C76.3624 9.39128 76.4521 9.82072 76.4521 10.285C76.4521 10.877 76.3132 11.4052 76.0354 11.8694C75.7582 12.3337 75.3763 12.6762 74.8905 12.8967C75.5152 13.1288 75.998 13.4915 76.3393 13.9848C76.6807 14.4782 76.8513 15.044 76.8513 15.6824C76.8513 16.1699 76.7585 16.6197 76.5735 17.0318C76.3885 17.4438 76.1313 17.7978 75.8011 18.0938C75.4716 18.3898 75.0786 18.619 74.6214 18.7815C74.1642 18.9441 73.664 19.0253 73.1202 19.0253H67.9148V7.0466ZM77.1914 14.6726C77.1914 13.9993 77.3067 13.3842 77.5384 12.827C77.7695 12.2698 78.0934 11.7911 78.5101 11.3906C78.9268 10.9902 79.4208 10.6768 79.9938 10.4504C80.5662 10.2241 81.1941 10.1109 81.8762 10.1109C82.5589 10.1109 83.1867 10.2241 83.7592 10.4504C84.3316 10.6768 84.8231 10.9902 85.2342 11.3906C85.6447 11.7911 85.9654 12.2698 86.1972 12.827C86.4282 13.3842 86.5441 13.9993 86.5441 14.6726C86.5441 15.3342 86.4282 15.9465 86.1972 16.5094C85.9654 17.0724 85.6447 17.5541 85.2342 17.9545C84.8231 18.355 84.3316 18.6684 83.7592 18.8947C83.1867 19.1211 82.5589 19.2342 81.8762 19.2342C81.1941 19.2342 80.5662 19.1211 79.9938 18.8947C79.4208 18.6684 78.9268 18.355 78.5101 17.9545C78.0934 17.5541 77.7695 17.0724 77.5384 16.5094C77.3067 15.9465 77.1914 15.3342 77.1914 14.6726ZM80.0891 14.6726C80.0891 15.3342 80.2542 15.8652 80.5837 16.2657C80.9132 16.6662 81.3442 16.8663 81.8762 16.8663C82.3969 16.8663 82.8248 16.6662 83.1606 16.2657C83.4957 15.8652 83.6639 15.3342 83.6639 14.6726C83.6639 14.011 83.4957 13.4799 83.1606 13.0795C82.8248 12.679 82.3969 12.4788 81.8762 12.4788C81.3442 12.4788 80.9132 12.679 80.5837 13.0795C80.2542 13.4799 80.0891 14.011 80.0891 14.6726ZM93.148 14.6726C93.148 14.0342 92.9891 13.5205 92.6708 13.1317C92.3532 12.7428 91.9396 12.5485 91.4307 12.5485C90.9211 12.5485 90.4646 12.7516 90.0597 13.1578V16.1873C90.4646 16.5936 90.9211 16.7967 91.4307 16.7967C91.9396 16.7967 92.3532 16.5994 92.6708 16.2047C92.9891 15.8101 93.148 15.2994 93.148 14.6726ZM87.2312 6.50686H90.0597V10.79C90.7187 10.3373 91.3958 10.1109 92.0897 10.1109C92.6683 10.1109 93.2003 10.2241 93.6861 10.4504C94.172 10.6768 94.5887 10.9902 94.9357 11.3906C95.2826 11.7911 95.5517 12.2698 95.7423 12.827C95.9335 13.3842 96.0288 13.9993 96.0288 14.6726C96.0288 15.3458 95.9335 15.961 95.7423 16.5182C95.5517 17.0753 95.2826 17.5541 94.9357 17.9545C94.5887 18.355 94.172 18.6684 93.6861 18.8947C93.2003 19.1211 92.6683 19.2342 92.0897 19.2342C91.3958 19.2342 90.7187 19.0079 90.0597 18.5552V19.0253H87.2312V6.50686Z" fill="#92929A"/>
</g>
<defs>
<filter id="filter0_dd" x="0.421875" y="0.5" width="100.188" height="33" filterUnits="userSpaceOnUse" color-interpolation-filters="sRGB">
<feFlood flood-opacity="0" result="BackgroundImageFix"/>
<feColorMatrix in="SourceAlpha" type="matrix" values="0 0 0 0 0 0 0 0 0 0 0 0 0 0 0 0 0 0 127 0"/>
<feOffset dy="4"/>
<feGaussianBlur stdDeviation="2"/>
<feColorMatrix type="matrix" values="0 0 0 0 0 0 0 0 0 0 0 0 0 0 0 0 0 0 0.25 0"/>
<feBlend mode="normal" in2="BackgroundImageFix" result="effect1_dropShadow"/>
<feColorMatrix in="SourceAlpha" type="matrix" values="0 0 0 0 0 0 0 0 0 0 0 0 0 0 0 0 0 0 127 0"/>
<feOffset dy="4"/>
<feGaussianBlur stdDeviation="2"/>
<feColorMatrix type="matrix" values="0 0 0 0 0 0 0 0 0 0 0 0 0 0 0 0 0 0 0.25 0"/>
<feBlend mode="normal" in2="effect1_dropShadow" result="effect2_dropShadow"/>
<feBlend mode="normal" in="SourceGraphic" in2="effect2_dropShadow" result="shape"/>
</filter>
<clipPath id="clip0">
<rect width="92.1875" height="25" fill="white" transform="translate(4.42188 0.5)"/>
</clipPath>
</defs>
</svg>
