<svg width="64" height="34" viewBox="0 0 64 34" fill="none" xmlns="http://www.w3.org/2000/svg">
<g clip-path="url(#clip0)" filter="url(#filter0_d)">
<path fill-rule="evenodd" clip-rule="evenodd" d="M13.9838 11.3476C13.8047 11.1879 13.5544 11.1346 13.3254 11.2069L7.09369 13.1733L15.9981 4.65569C16.2723 4.39284 16.2816 3.9572 16.019 3.68275C16.0062 3.66961 15.9935 3.65685 15.9796 3.64487L12.6554 0.674649C12.3716 0.421462 11.9367 0.446587 11.6838 0.730312C11.6548 0.763169 11.6289 0.798344 11.6065 0.835839L4.37116 12.9861C4.2414 13.2041 4.28427 13.484 4.47388 13.6529L5.8838 14.9146C6.0572 15.0693 6.29701 15.1253 6.521 15.0631L11.5695 13.656L5.75869 22.7866C5.47832 23.2277 6.0599 23.7054 6.43719 23.3436L16.1445 14.0379C16.355 13.835 16.3612 13.4995 16.158 13.2888C16.1491 13.2796 16.1398 13.2706 16.1302 13.2618L13.9838 11.3476Z" fill="#92929A"/>
<path fill-rule="evenodd" clip-rule="evenodd" d="M59.3035 10.0454L58.3394 9.18581C58.2086 9.069 58.0079 9.08031 57.891 9.21113C57.8649 9.24075 57.8438 9.275 57.8302 9.31244L55.8477 14.6605C54.898 17.2226 53.7723 18.0997 53.0663 18.0997C52.8407 18.0997 52.5196 17.9357 52.5196 17.3892C52.5196 17.2035 52.5523 16.8109 52.7822 16.1904L54.6708 11.099C54.8088 10.7274 54.7047 10.3095 54.409 10.0458L53.4446 9.18581C53.3137 9.069 53.113 9.08031 52.9961 9.21113C52.97 9.24075 52.949 9.275 52.9354 9.31244L50.9532 14.6605C50.004 17.2226 48.8779 18.0997 48.1726 18.0997C47.9466 18.0997 47.6255 17.9357 47.6255 17.3892C47.6255 17.2035 47.6587 16.8109 47.8878 16.1904L52.0123 5.05726C52.1502 4.68607 52.0462 4.26815 51.7508 4.00408L50.786 3.14408C50.6555 3.02724 50.4548 3.03892 50.3379 3.1694C50.3114 3.199 50.2907 3.23367 50.2767 3.27067L46.0556 14.6605C45.7556 15.4694 45.6153 16.2921 45.6153 16.7711C45.6153 18.3914 46.7091 19.3215 47.8874 19.3215C48.7707 19.3215 49.746 18.7564 50.6294 17.5929C50.9318 18.6964 51.8244 19.3215 52.7819 19.3215C53.3153 19.3215 53.8834 19.1131 54.4449 18.6952L53.0565 22.4382C51.6211 21.7581 49.9826 21.6413 48.4653 22.1118C48.2802 22.1683 48.3184 22.4382 48.5093 22.4569C50.4845 22.6427 52.1097 23.4964 53.3094 25.1007C53.5249 25.3866 53.9313 25.4439 54.2169 25.2285C54.3159 25.1541 54.3915 25.0532 54.4343 24.9372L59.5642 11.1006C59.7029 10.7286 59.5996 10.3099 59.3035 10.0454Z" fill="#92929A"/>
<path fill-rule="evenodd" clip-rule="evenodd" d="M38.6135 18.0916C38.2268 18.0916 37.9384 17.7113 37.9384 17.145C37.9384 16.9557 37.9974 16.5048 38.2291 15.873C39.5547 12.415 41.3583 10.5382 42.1672 10.5382C42.7015 10.5382 42.783 11.0942 42.783 11.7566C42.783 14.4558 40.3755 18.0896 38.6135 18.0896V18.0916ZM42.905 8.92447C41.9508 8.92447 41.0636 9.47253 40.2704 10.3092L42.2955 4.80048C42.4348 4.42186 42.3297 3.99601 42.0315 3.72732L41.0554 2.85061C40.9235 2.73155 40.7205 2.74306 40.6029 2.87641C40.5761 2.90657 40.5553 2.9415 40.5411 2.9796L36.2788 14.5852C35.9759 15.4098 35.8346 16.2477 35.8346 16.7358C35.8346 18.3075 36.9351 19.3346 38.431 19.3346C41.9607 19.3346 45.1457 15.1495 45.1457 11.774C45.1437 10.121 44.3478 8.92447 42.905 8.92447Z" fill="#92929A"/>
<path fill-rule="evenodd" clip-rule="evenodd" d="M29.5955 18.0916C29.2083 18.0916 28.9195 17.7113 28.9195 17.145C28.9195 16.9557 28.9786 16.5048 29.2106 15.873C30.5379 12.415 32.3438 10.5382 33.1538 10.5382C33.6892 10.5382 33.7707 11.0942 33.7707 11.7566C33.77 14.4558 31.3616 18.0896 29.5951 18.0896L29.5955 18.0916ZM31.2549 10.3092L33.2822 4.80048C33.4217 4.42186 33.3169 3.99601 33.0179 3.72732L32.0408 2.85061C31.9085 2.73155 31.7056 2.74306 31.5874 2.87641C31.5606 2.90657 31.5398 2.9415 31.5259 2.9796L27.2578 14.5852C26.2965 17.1954 25.1591 18.0896 24.4453 18.0896C24.2168 18.0896 23.8925 17.9229 23.8925 17.3657C23.8925 17.1763 23.9256 16.7763 24.158 16.1441L26.066 10.9561C26.2059 10.5778 26.1007 10.1516 25.8021 9.88253L24.8266 9.00622C24.6947 8.88753 24.4914 8.89903 24.3736 9.03203C24.3468 9.06259 24.3259 9.09709 24.3117 9.13559L22.3073 14.5852C21.3475 17.1958 20.209 18.0896 19.4956 18.0896C19.267 18.0896 18.9424 17.9229 18.9424 17.3657C18.9424 17.1763 18.9755 16.7763 19.2076 16.1441L21.1155 10.9561C21.255 10.5778 21.1498 10.152 20.8504 9.88291L19.8757 9.00659C19.7437 8.88797 19.5409 8.89947 19.4226 9.03241C19.3958 9.06259 19.375 9.09791 19.3608 9.13597L17.3571 14.5852C17.0542 15.4098 16.912 16.2477 16.912 16.7358C16.912 18.3873 18.0174 19.3346 19.2087 19.3346C20.1018 19.3346 21.0879 18.7587 21.9811 17.5737C22.2868 18.698 23.1893 19.3346 24.1569 19.3346C25.0528 19.3346 26.0435 18.7555 26.9363 17.5633C27.2562 18.6535 28.1977 19.3346 29.4092 19.3346C32.9442 19.3346 36.1349 15.1495 36.1349 11.774C36.1341 10.121 35.3371 8.92447 33.8929 8.92447C32.9371 8.92447 32.0488 9.47253 31.2549 10.3092Z" fill="#92929A"/>
</g>
<defs>
<filter id="filter0_d" x="0.296875" y="0.5" width="63.4688" height="33" filterUnits="userSpaceOnUse" color-interpolation-filters="sRGB">
<feFlood flood-opacity="0" result="BackgroundImageFix"/>
<feColorMatrix in="SourceAlpha" type="matrix" values="0 0 0 0 0 0 0 0 0 0 0 0 0 0 0 0 0 0 127 0"/>
<feOffset dy="4"/>
<feGaussianBlur stdDeviation="2"/>
<feColorMatrix type="matrix" values="0 0 0 0 0 0 0 0 0 0 0 0 0 0 0 0 0 0 0.25 0"/>
<feBlend mode="normal" in2="BackgroundImageFix" result="effect1_dropShadow"/>
<feBlend mode="normal" in="SourceGraphic" in2="effect1_dropShadow" result="shape"/>
</filter>
<clipPath id="clip0">
<rect width="55.4688" height="25" fill="white" transform="translate(4.29688 0.5)"/>
</clipPath>
</defs>
</svg>
