<svg width="24" height="24" viewBox="0 0 24 24" fill="none" xmlns="http://www.w3.org/2000/svg">
<path fill-rule="evenodd" clip-rule="evenodd" d="M7.53033 6.46918C7.23744 6.17629 6.76256 6.17629 6.46967 6.46918C6.17678 6.76207 6.17678 7.23695 6.46967 7.52984L10.9393 11.9995L6.46967 16.4692C6.17678 16.7621 6.17678 17.2369 6.46967 17.5298C6.76256 17.8227 7.23744 17.8227 7.53033 17.5298L12 13.0602L16.4697 17.5298C16.7626 17.8227 17.2374 17.8227 17.5303 17.5298C17.8232 17.2369 17.8232 16.7621 17.5303 16.4692L13.0607 11.9995L17.5303 7.52984C17.8232 7.23695 17.8232 6.76207 17.5303 6.46918C17.2374 6.17629 16.7626 6.17629 16.4697 6.46918L12 10.9389L7.53033 6.46918Z" fill="#A3A6C2" fill-opacity="0.55"/>
</svg>
