<?xml version="1.0" encoding="UTF-8"?>
<svg xmlns="http://www.w3.org/2000/svg" xmlns:xlink="http://www.w3.org/1999/xlink" viewBox="0 0 50 50" width="50px" height="50px">
<g id="surface390495">
<path style=" stroke:none;fill-rule:nonzero;fill:rgb(80.000001%,80.000001%,80.000001%);fill-opacity:1;" d="M 50 41 L 40 41 L 45 33 Z M 30 6 L 25 15 L 20 6 Z M 10 41 L 0 41 L 5 33 Z M 17 32 L 14 37 L 16 41 L 12.359375 41 L 6.511719 31.640625 L 11 24 L 14 24 L 13 20 L 15.398438 16 L 19 16 L 18 12 L 19.441406 9.109375 L 24.101562 17.5 L 19 26 L 24 26 L 25 23 L 29 32 Z M 43.488281 31.640625 L 37.640625 41 L 34 41 L 36.46875 36.070312 L 25.878906 17.539062 L 30.609375 9.03125 L 37 20 L 36 24 L 39 24 Z M 43.488281 31.640625 "/>
</g>
</svg>
