<svg width="24" height="24" viewBox="0 0 24 24" fill="none" xmlns="http://www.w3.org/2000/svg">
<path fill-rule="evenodd" clip-rule="evenodd" d="M5.00002 7C5.00002 6.75523 5.23329 6.5 5.54164 6.5H8.68388C8.68391 6.50006 8.68443 6.5002 8.68548 6.50047C8.69473 6.50288 8.74452 6.51586 8.84684 6.58241C8.95766 6.65449 9.06176 6.74181 9.19328 6.85214L9.27533 6.92081C9.29086 6.93374 9.30689 6.94604 9.3234 6.95767L11.318 8.36309C11.4445 8.45218 11.5954 8.5 11.75 8.5H17.625C17.7514 8.5 17.8255 8.54444 17.8783 8.60574C17.9398 8.67715 18 8.80829 18 9V9.79167H7.1054C6.27217 9.79167 5.526 10.3083 5.23321 11.0886C5.22679 11.1057 5.221 11.123 5.21585 11.1406L5.00002 11.8748V7ZM3.50002 17.1504V7C3.50002 5.86394 4.46916 5 5.54164 5H8.68831C9.09786 5 9.43778 5.1774 9.66468 5.32498C9.85994 5.45198 10.0457 5.60859 10.175 5.71755L10.175 5.71755L10.2128 5.74939L11.9877 7H17.625C18.8303 7 19.5 8.00386 19.5 9V9.81817C20.4401 9.99142 21.0392 10.9845 20.6933 11.9219L18.86 17.4667C18.8569 17.4761 18.8536 17.4855 18.8501 17.4947C18.7207 17.8397 18.4967 18.192 18.2054 18.4679C17.919 18.7393 17.4969 19 16.9779 19H5.12582C4.48141 19 4.01573 18.5747 3.7746 18.1728C3.60591 17.8916 3.48776 17.5281 3.50002 17.1504ZM5.01951 17.1269L6.64549 11.5958C6.72341 11.4122 6.9041 11.2917 7.1054 11.2917H19.2075C19.2662 11.2917 19.3061 11.3504 19.2854 11.4044C19.2812 11.4152 19.2774 11.4261 19.2737 11.4371L17.4412 16.9796C17.3867 17.1189 17.2884 17.2705 17.1738 17.379C17.0512 17.4951 16.9797 17.5 16.9779 17.5H5.14727L5.14579 17.499C5.12618 17.4856 5.09289 17.4545 5.06087 17.4011C5.02919 17.3483 5.00966 17.2916 5.00255 17.2437C4.99636 17.202 5.00143 17.1817 5.00201 17.1794C5.00204 17.1792 5.00206 17.1792 5.00206 17.1792L5.00188 17.1796C5.0084 17.1623 5.01429 17.1447 5.01951 17.1269Z" fill="#F0F1F4" fill-opacity="0.8"/>
</svg>
