<svg width="24" height="24" viewBox="0 0 24 24" fill="none" xmlns="http://www.w3.org/2000/svg">
<path fill-rule="evenodd" clip-rule="evenodd" d="M5.54169 5C4.43764 5 3.54263 5.89443 3.54169 6.99825L3.54169 7L3.50001 16.9969L3.5 17C3.5 18.1361 4.46925 19 5.54169 19H18.4584C19.5308 19 20.5 18.1361 20.5 17V9C20.5 7.86392 19.5308 7 18.4584 7H12.0581L10.2317 5.51517C9.75873 5.12303 9.19327 5 8.68835 5H5.54169ZM5.04169 7C5.04169 6.7238 5.26548 6.5 5.54169 6.5H8.68835C8.96208 6.5 9.14993 6.5663 9.27538 6.67081L9.27534 6.67085L9.28233 6.67653L11.3186 8.33195L11.5253 8.5H11.7917H18.4584C18.7667 8.5 19 8.75525 19 9V10L5.02919 10L5.04168 7.00313H5.04169V7ZM5.02293 11.5L5 17L5 17.0012C5.00073 17.2455 5.23377 17.5 5.54169 17.5H18.4584C18.7667 17.5 19 17.2448 19 17V11.5L5.02293 11.5Z" fill="#BCBED2" fill-opacity="0.7"/>
</svg>
