<?xml version="1.0" encoding="UTF-8"?>
<svg xmlns="http://www.w3.org/2000/svg" xmlns:xlink="http://www.w3.org/1999/xlink" viewBox="0 0 64 64" width="64px" height="64px">
<defs>
<linearGradient id="linear0" gradientUnits="userSpaceOnUse" x1="70.33725" y1="11.11908" x2="102.164421" y2="160.855835" gradientTransform="matrix(0.372093,0,0,0.372093,0,0)">
<stop offset="0" style="stop-color:rgb(18.039216%,80.000001%,44.313726%);stop-opacity:1;"/>
<stop offset="1" style="stop-color:rgb(10.196079%,73.725492%,61.176473%);stop-opacity:1;"/>
</linearGradient>
</defs>
<g id="surface71337">
<path style=" stroke:none;fill-rule:evenodd;fill:url(#linear0);" d="M 17.394531 37.570312 L 25.015625 46.144531 C 25.722656 46.941406 25.261719 48.203125 24.210938 48.351562 L 17.878906 49.253906 C 17.53125 49.304688 17.175781 49.214844 16.890625 49 L 12.839844 45.960938 C 12.347656 45.59375 12.171875 44.933594 12.414062 44.371094 L 15.171875 37.929688 C 15.558594 37.03125 16.746094 36.839844 17.394531 37.570312 Z M 43.320312 14.992188 L 47.117188 16.890625 C 47.644531 17.152344 47.933594 17.726562 47.835938 18.304688 L 46.996094 23.363281 C 46.839844 24.300781 45.777344 24.777344 44.972656 24.273438 L 37.847656 19.820312 C 37.003906 19.292969 37.011719 18.058594 37.867188 17.546875 L 42.039062 15.042969 C 42.429688 14.808594 42.914062 14.789062 43.320312 14.992188 Z M 15.5 14.667969 C 16 14.667969 16.402344 14.6875 17 15.167969 C 17.753906 15.769531 45.769531 35.59375 51.121094 39.378906 C 51.636719 39.742188 51.820312 40.40625 51.570312 40.984375 C 50.769531 42.851562 49.070312 46.828125 48.339844 48.53125 C 48.132812 49.019531 47.652344 49.332031 47.121094 49.332031 L 43.253906 49.332031 C 42.878906 49.332031 42.523438 49.175781 42.269531 48.902344 L 13.25 17.359375 C 12.625 16.679688 12.863281 15.582031 13.71875 15.226562 C 14.425781 14.933594 15.160156 14.667969 15.5 14.667969 Z M 20.324219 8.371094 C 20.078125 8.128906 19.753906 8 19.40625 8 L 8 8 C 7.296875 8.351562 6.667969 8.761719 6.667969 10.167969 L 6.667969 22.351562 C 6.667969 22.558594 6.714844 22.761719 6.808594 22.949219 L 7.703125 24.738281 C 7.890625 25.113281 7.890625 25.554688 7.703125 25.929688 L 6.667969 28 L 6.667969 29.332031 L 8 30.667969 L 8 32 L 7.058594 32.941406 C 6.808594 33.191406 6.667969 33.53125 6.667969 33.886719 L 6.667969 38.113281 C 6.667969 38.46875 6.808594 38.808594 7.058594 39.058594 L 7.609375 39.609375 C 7.859375 39.859375 8 40.199219 8 40.550781 L 8 44.675781 C 8 45.070312 7.820312 45.449219 7.515625 45.699219 C 6.621094 46.429688 6.667969 46.828125 6.667969 48 L 6.667969 53.648438 C 6.667969 54.242188 7.070312 54.761719 7.640625 54.929688 C 9.828125 55.566406 10.183594 56 13.332031 56 C 16.484375 56 18.667969 56 18.667969 56 C 19.484375 56 20.304688 55.328125 20.8125 54.941406 C 21.164062 54.671875 21.644531 54.570312 22.042969 54.765625 C 22.671875 55.074219 23.488281 56 24.550781 56 C 25.40625 56 26.769531 54.667969 27.5 54.667969 C 27.964844 54.667969 29.140625 55.617188 29.140625 55.617188 C 29.269531 55.679688 29.386719 55.765625 29.488281 55.867188 L 30.277344 56.941406 C 30.527344 57.191406 30.867188 57.332031 31.21875 57.332031 L 32.808594 57.332031 C 33.117188 57.332031 33.421875 57.230469 33.65625 57.03125 C 34.105469 56.644531 34.988281 56.019531 36 56 L 42.316406 56 C 42.53125 56 42.734375 55.953125 42.925781 55.851562 C 43.292969 55.660156 43.976562 55.0625 44.519531 54.796875 C 45.042969 54.542969 45.671875 54.65625 46.070312 55.078125 C 46.144531 55.15625 46.21875 55.234375 46.285156 55.308594 C 46.539062 55.585938 46.890625 56 47.265625 56 L 50.113281 56 C 50.46875 56 50.808594 55.859375 51.058594 55.609375 L 51.429688 55.058594 C 51.78125 54.707031 52.292969 54.578125 52.769531 54.730469 C 53.203125 54.867188 54.574219 55.707031 55.703125 55.964844 C 56.535156 56.160156 57.332031 55.523438 57.332031 54.667969 L 57.332031 37.332031 C 57.332031 36.597656 56.734375 36 56 36 L 54.667969 36 L 55.609375 35.058594 C 55.859375 34.808594 56 34.46875 56 34.113281 L 56 29.648438 C 56 29.441406 55.953125 29.238281 55.859375 29.050781 L 55.097656 27.527344 C 54.839844 27.011719 54.941406 26.394531 55.34375 25.988281 L 56 25.332031 L 56 24 L 56.941406 23.058594 C 57.191406 22.808594 57.332031 22.46875 57.332031 22.113281 L 57.332031 17.496094 C 57.332031 17.386719 57.320312 17.28125 57.292969 17.171875 L 56.183594 12.730469 C 56.070312 12.277344 56.203125 11.796875 56.535156 11.464844 L 57.332031 10.667969 L 57.332031 9.332031 L 56.3125 8.3125 C 56.109375 8.109375 55.847656 7.976562 55.5625 7.9375 L 51.351562 7.320312 L 50.296875 8.074219 L 49.730469 7.246094 C 49.480469 6.882812 49.070312 6.667969 48.628906 6.667969 L 41.332031 6.667969 C 40.511719 6.667969 40 7.195312 40 7.992188 C 40 8.183594 40 9.332031 38.667969 9.332031 C 37.332031 9.332031 37.332031 8 37.332031 8 C 37.332031 8 37.332031 6.667969 35.800781 6.667969 L 27.402344 6.667969 C 26.953125 6.667969 26.535156 6.886719 26.289062 7.261719 C 25.777344 8.046875 24.859375 9.332031 24.371094 9.332031 C 23.667969 9.332031 23.492188 9.332031 22.667969 9.332031 C 21.515625 9.332031 20.730469 8.765625 20.324219 8.371094 Z M 20.324219 8.371094 "/>
</g>
</svg>
