<?xml version="1.0" encoding="UTF-8"?>
<svg xmlns="http://www.w3.org/2000/svg" xmlns:xlink="http://www.w3.org/1999/xlink" viewBox="0 0 64 64" width="64px" height="64px">
<g id="surface385487">
<path style=" stroke:none;fill-rule:nonzero;fill:rgb(80.000001%,80.000001%,80.000001%);fill-opacity:1;" d="M 29 0.5 C 28.148438 0.5 27.5 1.148438 27.5 2 L 27.5 18.5 C 27.5 22.101562 24.601562 25 21 25 L 8.5 25 C 7.648438 25 7 25.648438 7 26.5 L 7 62 C 7 62.851562 7.648438 63.5 8.5 63.5 L 9 63.5 C 9.398438 63.5 9.800781 63.351562 10.050781 63.050781 L 14 59.097656 L 17.949219 63.050781 C 18.550781 63.648438 19.5 63.648438 20.050781 63.050781 L 24 59.097656 L 27.949219 63.050781 C 28.550781 63.648438 29.5 63.648438 30.050781 63.050781 L 34 59.097656 L 37.949219 63.050781 C 38.550781 63.648438 39.5 63.648438 40.050781 63.050781 L 44 59.097656 L 47.949219 63.050781 C 48.25 63.351562 48.648438 63.5 49 63.5 C 49.351562 63.5 49.75 63.351562 50.050781 63.050781 L 55.050781 58.050781 C 55.351562 57.75 55.5 57.398438 55.5 57 L 55.5 5.5 C 55.5 2.75 53.25 0.5 50.5 0.5 Z M 22.9375 3.871094 C 22.671875 3.886719 22.402344 3.976562 22.148438 4.148438 C 21.648438 4.5 21.199219 4.851562 20.75 5.199219 L 8.199219 15.949219 C 7.199219 16.800781 6.75 18.25 7.148438 19.550781 C 7.601562 21 9 21.949219 10.550781 21.949219 L 19.5 21.949219 C 22.25 21.949219 24.5 19.699219 24.5 16.949219 L 24.5 5.351562 C 24.5 4.449219 23.742188 3.832031 22.9375 3.875 Z M 24.207031 35.917969 C 26.191406 35.886719 27.636719 37.65625 28.902344 39.25 C 29.800781 40.351562 30.949219 41.75 31.699219 41.699219 C 32.25 41.648438 32.949219 40.949219 33.652344 40.300781 C 34.75 39.25 36.148438 37.898438 38.101562 38.101562 C 38.648438 38.148438 39.199219 38.300781 39.75 38.601562 C 40.449219 38.949219 40.75 39.898438 40.351562 40.601562 C 40 41.351562 39.101562 41.648438 38.351562 41.25 C 38.101562 41.148438 37.898438 41.050781 37.75 41.050781 C 37.199219 41 36.449219 41.699219 35.699219 42.449219 C 34.699219 43.398438 33.601562 44.5 32 44.648438 L 31.597656 44.648438 C 29.398438 44.648438 27.898438 42.75 26.550781 41.097656 C 25.898438 40.25 24.898438 39.050781 24.300781 38.902344 C 23.800781 39.351562 22.699219 40.851562 21.949219 41.902344 C 21.648438 42.300781 21.398438 42.699219 21.101562 43.097656 C 20.601562 43.75 19.648438 43.902344 19 43.402344 C 18.351562 42.902344 18.199219 41.949219 18.699219 41.300781 C 19 40.898438 19.25 40.550781 19.550781 40.152344 C 21.5 37.402344 22.5 36.101562 23.800781 35.949219 C 23.9375 35.929688 24.074219 35.921875 24.207031 35.917969 Z M 45 41.5 C 45.851562 41.5 46.5 42.148438 46.5 43 C 46.5 43.851562 45.851562 44.5 45 44.5 C 44.148438 44.5 43.5 43.851562 43.5 43 C 43.5 42.148438 44.148438 41.5 45 41.5 Z M 45 41.5 "/>
</g>
</svg>
