<svg width="24" height="24" viewBox="0 0 24 24" fill="none" xmlns="http://www.w3.org/2000/svg">
<path fill-rule="evenodd" clip-rule="evenodd" d="M6.12585 6.99951C5.71164 6.99951 5.37585 7.3353 5.37585 7.74951C5.37585 8.16373 5.71164 8.49951 6.12585 8.49951H17.8742C18.2884 8.49951 18.6242 8.16373 18.6242 7.74951C18.6242 7.3353 18.2884 6.99951 17.8742 6.99951H6.12585ZM5.37585 11.9995C5.37585 11.5853 5.71164 11.2495 6.12585 11.2495H17.8742C18.2884 11.2495 18.6242 11.5853 18.6242 11.9995C18.6242 12.4137 18.2884 12.7495 17.8742 12.7495H6.12585C5.71164 12.7495 5.37585 12.4137 5.37585 11.9995ZM5.37585 16.2495C5.37585 15.8353 5.71164 15.4995 6.12585 15.4995H17.8742C18.2884 15.4995 18.6242 15.8353 18.6242 16.2495C18.6242 16.6637 18.2884 16.9995 17.8742 16.9995H6.12585C5.71164 16.9995 5.37585 16.6637 5.37585 16.2495Z" fill="#A3A6C2" fill-opacity="0.55"/>
</svg>
