<svg width="24" height="24" viewBox="0 0 24 24" fill="none" xmlns="http://www.w3.org/2000/svg">
<path fill-rule="evenodd" clip-rule="evenodd" d="M4.00752 9.47743L4.01 7C4.01 5.9 4.9 5 6 5H7L8 8H8.41886H10L9.5 6.5L9 5H10.5811H11L12 8H12.4189H14L13.5 6.5L13 5H14.5811H15L16 8H16.4189H18L17.5 6.5L17 5H18.5H18.5811H20V6.5V9.25658V9.5V17C20 18.1 19.1 19 18 19H6C4.9 19 4 18.1 4 17L4.00749 9.50749L4 9.5L4.00752 9.47743ZM5.50611 10.8888C5.56142 10.3889 5.9853 10 6.5 10H17.5C18.0523 10 18.5 10.4477 18.5 11V17C18.5 17.2716 18.2716 17.5 18 17.5H6C5.7286 17.5 5.50029 17.2719 5.5 17.0005L5.5 17L5.50611 10.8888Z" fill="#BCBED2" fill-opacity="0.7"/>
</svg>
